<svg width="32" height="260" viewBox="0 0 32 260" fill="none" xmlns="http://www.w3.org/2000/svg">
<g opacity="0.4">
<path d="M16 76C22.7747 76 28.2667 73.0451 28.2667 69.4C28.2667 65.755 22.7747 62.8 16 62.8C9.22531 62.8 3.73334 65.755 3.73334 69.4C3.73334 73.0451 9.22531 76 16 76Z" stroke="#0C7CFE" stroke-width="4.2"/>
<path d="M16 98.2C19.2401 98.2 21.8667 92.0215 21.8667 84.4C21.8667 76.7784 19.2401 70.6 16 70.6C12.76 70.6 10.1334 76.7784 10.1334 84.4C10.1334 92.0215 12.76 98.2 16 98.2Z" stroke="#0C7CFE" stroke-width="4.2"/>
<path d="M16 106C22.7747 106 28.2667 103.045 28.2667 99.4C28.2667 95.755 22.7747 92.8 16 92.8C9.22531 92.8 3.73334 95.755 3.73334 99.4C3.73334 103.045 9.22531 106 16 106Z" stroke="#0C7CFE" stroke-width="4.2"/>
<path d="M16 128.2C19.2401 128.2 21.8667 122.022 21.8667 114.4C21.8667 106.778 19.2401 100.6 16 100.6C12.76 100.6 10.1334 106.778 10.1334 114.4C10.1334 122.022 12.76 128.2 16 128.2Z" stroke="#0C7CFE" stroke-width="4.2"/>
<path d="M16 136C22.7747 136 28.2667 133.045 28.2667 129.4C28.2667 125.755 22.7747 122.8 16 122.8C9.22531 122.8 3.73334 125.755 3.73334 129.4C3.73334 133.045 9.22531 136 16 136Z" stroke="#0C7CFE" stroke-width="4.2"/>
<path d="M16 158.2C19.2401 158.2 21.8667 152.022 21.8667 144.4C21.8667 136.778 19.2401 130.6 16 130.6C12.76 130.6 10.1334 136.778 10.1334 144.4C10.1334 152.022 12.76 158.2 16 158.2Z" stroke="#0C7CFE" stroke-width="4.2"/>
<path d="M16 166C22.7747 166 28.2667 163.045 28.2667 159.4C28.2667 155.755 22.7747 152.8 16 152.8C9.22531 152.8 3.73334 155.755 3.73334 159.4C3.73334 163.045 9.22531 166 16 166Z" stroke="#0C7CFE" stroke-width="4.2"/>
<path d="M16 188.2C19.2401 188.2 21.8667 182.022 21.8667 174.4C21.8667 166.778 19.2401 160.6 16 160.6C12.76 160.6 10.1334 166.778 10.1334 174.4C10.1334 182.022 12.76 188.2 16 188.2Z" stroke="#0C7CFE" stroke-width="4.2"/>
<path d="M16 196C22.7747 196 28.2667 193.045 28.2667 189.4C28.2667 185.755 22.7747 182.8 16 182.8C9.22531 182.8 3.73334 185.755 3.73334 189.4C3.73334 193.045 9.22531 196 16 196Z" stroke="#0C7CFE" stroke-width="4.2"/>
</g>
</svg>
